M48
; DRILL file {KiCad 9.0.2-9.0.2-0~ubuntu22.04.1} date 2025-10-14T18:04:42+0530
; FORMAT={-:-/ absolute / metric / decimal}
; #@! TF.CreationDate,2025-10-14T18:04:42+05:30
; #@! TF.GenerationSoftware,Kicad,Pcbnew,9.0.2-9.0.2-0~ubuntu22.04.1
; #@! TF.FileFunction,Plated,1,2,PTH
FMAT,2
METRIC
; #@! TA.AperFunction,Plated,PTH,ViaDrill
T1C0.300
; #@! TA.AperFunction,Plated,PTH,ComponentDrill
T2C0.730
; #@! TA.AperFunction,Plated,PTH,ComponentDrill
T3C0.800
; #@! TA.AperFunction,Plated,PTH,ComponentDrill
T4C0.900
; #@! TA.AperFunction,Plated,PTH,ComponentDrill
T5C0.910
; #@! TA.AperFunction,Plated,PTH,ComponentDrill
T6C1.020
; #@! TA.AperFunction,Plated,PTH,ComponentDrill
T7C1.070
; #@! TA.AperFunction,Plated,PTH,ComponentDrill
T8C1.190
; #@! TA.AperFunction,Plated,PTH,ComponentDrill
T9C1.200
; #@! TA.AperFunction,Plated,PTH,ComponentDrill
T10C2.000
%
G90
G05
T1
X133.6Y-115.07
X134.33Y-113.26
X148.07Y-130.05
X150.26Y-129.73
X150.97Y-124.67
X153.2Y-129.73
X156.41Y-127.74
X158.45Y-125.74
X159.52Y-122.21
X160.6Y-127.77
X163.96Y-114.58
X164.46Y-115.93
X165.37Y-84.96
X169.02Y-129.33
X171.11Y-84.96
X177.41Y-123.57
X178.12Y-127.76
X179.1Y-131.34
X184.05Y-131.42
X185.75Y-103.04
X188.98Y-90.31
X189.94Y-127.69
X192.22Y-129.39
T2
X104.69Y-134.48
X106.19Y-134.48
X107.69Y-134.48
X109.19Y-134.48
X110.69Y-134.48
X112.19Y-134.48
X192.69Y-133.85
X194.19Y-133.85
X195.69Y-133.85
X197.19Y-133.85
X198.69Y-133.85
X200.19Y-133.85
T3
X165.36Y-98.56
X165.36Y-111.26
X169.38Y-98.56
X169.38Y-111.26
X173.32Y-98.56
X173.32Y-111.26
T4
X168.17Y-118.47
X169.44Y-118.47
X170.71Y-118.47
X171.98Y-118.47
T6
X123.55Y-78.96
X123.55Y-81.5
X123.55Y-84.04
X123.55Y-86.58
X123.55Y-89.12
X123.55Y-91.66
X123.55Y-94.2
X123.55Y-96.74
X123.55Y-99.28
X123.55Y-101.82
X123.55Y-104.36
X123.55Y-106.9
X123.55Y-109.44
X123.55Y-111.98
X123.55Y-114.52
X123.55Y-117.06
X123.55Y-119.6
X123.55Y-122.14
X123.55Y-124.68
X126.09Y-78.96
X126.09Y-81.5
X126.09Y-84.04
X126.09Y-86.58
X126.09Y-89.12
X126.09Y-91.66
X126.09Y-94.2
X126.09Y-96.74
X126.09Y-99.28
X126.09Y-101.82
X126.09Y-104.36
X126.09Y-106.9
X126.09Y-109.44
X126.09Y-111.98
X126.09Y-114.52
X126.09Y-117.06
X126.09Y-119.6
X126.09Y-122.14
X126.09Y-124.68
X184.51Y-78.96
X184.51Y-81.5
X184.51Y-84.04
X184.51Y-86.58
X184.51Y-89.12
X184.51Y-91.66
X184.51Y-94.2
X184.51Y-96.74
X184.51Y-99.28
X184.51Y-101.82
X184.51Y-104.36
X184.51Y-106.9
X184.51Y-109.44
X184.51Y-111.98
X184.51Y-114.52
X184.51Y-117.06
X184.51Y-119.6
X184.51Y-122.14
X184.51Y-124.68
X187.05Y-78.96
X187.05Y-81.5
X187.05Y-84.04
X187.05Y-86.58
X187.05Y-89.12
X187.05Y-91.66
X187.05Y-94.2
X187.05Y-96.74
X187.05Y-99.28
X187.05Y-101.82
X187.05Y-104.36
X187.05Y-106.9
X187.05Y-109.44
X187.05Y-111.98
X187.05Y-114.52
X187.05Y-117.06
X187.05Y-119.6
X187.05Y-122.14
X187.05Y-124.68
T7
X131.17Y-89.12
X131.17Y-91.66
X131.17Y-94.2
X131.17Y-96.74
X131.17Y-99.28
X131.17Y-101.82
X131.17Y-104.36
X131.17Y-106.9
X131.17Y-111.98
X131.17Y-114.52
X131.17Y-117.06
X131.17Y-119.6
X131.17Y-122.14
X131.17Y-124.68
X179.43Y-79.98
X179.43Y-82.52
X179.43Y-85.06
X179.43Y-87.6
X179.43Y-90.14
X179.43Y-92.68
X179.43Y-95.22
X179.43Y-97.76
X179.43Y-100.3
X179.43Y-102.84
X179.43Y-106.9
X179.43Y-109.44
X179.43Y-111.98
X179.43Y-114.52
X179.43Y-117.06
X179.43Y-119.6
X179.43Y-122.14
X179.43Y-124.68
T8
X134.81Y-133.48
X136.17Y-119.64
X137.35Y-133.48
X138.71Y-119.64
X139.89Y-133.48
X141.25Y-119.64
X142.43Y-133.48
X145.97Y-119.69
X148.51Y-119.69
X151.05Y-119.69
X151.9Y-133.58
X153.59Y-119.69
X154.44Y-133.58
X156.13Y-119.69
X156.98Y-133.58
X158.67Y-119.69
X159.52Y-133.58
X161.21Y-119.69
X169.27Y-132.95
X171.81Y-132.95
X174.35Y-132.95
X176.89Y-132.95
X197.79Y-125.93
X197.79Y-128.47
T9
X123.15Y-132.63
X128.23Y-132.63
X181.74Y-132.72
X186.82Y-132.72
X197.373Y-81.422
X197.373Y-86.502
X197.77Y-102.44
X197.77Y-107.52
X197.782Y-115.442
X197.782Y-120.522
T10
X97.1Y-131.05
X97.17Y-81.1
X117.55Y-81.12
X117.59Y-131.03
T5
G00X191.41Y-95.675
M15
G01X191.41Y-93.645
M16
G05
G00X196.11Y-95.675
M15
G01X196.11Y-93.645
M16
G05
G00X200.81Y-95.675
M15
G01X200.81Y-93.645
M16
G05
M30
