%TF.GenerationSoftware,KiCad,Pcbnew,9.0.2-9.0.2-0~ubuntu22.04.1*%
%TF.CreationDate,2025-10-14T18:04:36+05:30*%
%TF.ProjectId,CB_PCB,43425f50-4342-42e6-9b69-6361645f7063,rev?*%
%TF.SameCoordinates,Original*%
%TF.FileFunction,Soldermask,Bot*%
%TF.FilePolarity,Negative*%
%FSLAX46Y46*%
G04 Gerber Fmt 4.6, Leading zero omitted, Abs format (unit mm)*
G04 Created by KiCad (PCBNEW 9.0.2-9.0.2-0~ubuntu22.04.1) date 2025-10-14 18:04:36*
%MOMM*%
%LPD*%
G01*
G04 APERTURE LIST*
G04 Aperture macros list*
%AMRoundRect*
0 Rectangle with rounded corners*
0 $1 Rounding radius*
0 $2 $3 $4 $5 $6 $7 $8 $9 X,Y pos of 4 corners*
0 Add a 4 corners polygon primitive as box body*
4,1,4,$2,$3,$4,$5,$6,$7,$8,$9,$2,$3,0*
0 Add four circle primitives for the rounded corners*
1,1,$1+$1,$2,$3*
1,1,$1+$1,$4,$5*
1,1,$1+$1,$6,$7*
1,1,$1+$1,$8,$9*
0 Add four rect primitives between the rounded corners*
20,1,$1+$1,$2,$3,$4,$5,0*
20,1,$1+$1,$4,$5,$6,$7,0*
20,1,$1+$1,$6,$7,$8,$9,0*
20,1,$1+$1,$8,$9,$2,$3,0*%
G04 Aperture macros list end*
%ADD10RoundRect,0.492126X0.757874X-1.007874X0.757874X1.007874X-0.757874X1.007874X-0.757874X-1.007874X0*%
%ADD11RoundRect,0.250000X1.550000X-0.650000X1.550000X0.650000X-1.550000X0.650000X-1.550000X-0.650000X0*%
%ADD12O,3.600000X1.800000*%
%ADD13RoundRect,0.250000X-0.620000X-0.845000X0.620000X-0.845000X0.620000X0.845000X-0.620000X0.845000X0*%
%ADD14O,1.740000X2.190000*%
%ADD15RoundRect,0.250000X-0.265000X-0.615000X0.265000X-0.615000X0.265000X0.615000X-0.265000X0.615000X0*%
%ADD16O,1.030000X1.730000*%
%ADD17C,3.000000*%
%ADD18C,1.734000*%
%ADD19C,1.809000*%
%ADD20RoundRect,0.102000X-0.802500X-0.802500X0.802500X-0.802500X0.802500X0.802500X-0.802500X0.802500X0*%
%ADD21RoundRect,0.102000X-0.765000X-0.765000X0.765000X-0.765000X0.765000X0.765000X-0.765000X0.765000X0*%
%ADD22RoundRect,0.250000X0.650000X1.550000X-0.650000X1.550000X-0.650000X-1.550000X0.650000X-1.550000X0*%
%ADD23O,1.800000X3.600000*%
%ADD24C,1.600000*%
%ADD25O,1.600000X1.600000*%
%ADD26R,1.070000X1.800000*%
%ADD27O,1.070000X1.800000*%
%ADD28RoundRect,0.250000X0.845000X-0.620000X0.845000X0.620000X-0.845000X0.620000X-0.845000X-0.620000X0*%
%ADD29O,2.190000X1.740000*%
%ADD30O,2.014000X3.824000*%
G04 APERTURE END LIST*
D10*
%TO.C,U2*%
X97100000Y-131050000D03*
X117590000Y-131030000D03*
X97170000Y-81100000D03*
X117550000Y-81120000D03*
%TD*%
D11*
%TO.C,J4*%
X197770000Y-107520000D03*
D12*
X197770000Y-102440000D03*
%TD*%
D13*
%TO.C,J10*%
X134810000Y-133480000D03*
D14*
X137350000Y-133480000D03*
X139890000Y-133480000D03*
X142430000Y-133480000D03*
%TD*%
D15*
%TO.C,J2*%
X192690000Y-133850000D03*
D16*
X194190000Y-133850000D03*
X195690000Y-133850000D03*
X197190000Y-133850000D03*
X198690000Y-133850000D03*
X200190000Y-133850000D03*
%TD*%
D11*
%TO.C,J12*%
X197372500Y-86502500D03*
D12*
X197372500Y-81422500D03*
%TD*%
D17*
%TO.C,U1*%
X131170000Y-75150000D03*
X164190000Y-127220000D03*
X179430000Y-76420000D03*
D18*
X126090000Y-96740000D03*
D19*
X131170000Y-96740000D03*
D18*
X126090000Y-99280000D03*
D19*
X131170000Y-99280000D03*
D18*
X126090000Y-111980000D03*
D20*
X131170000Y-111980000D03*
D18*
X126090000Y-114520000D03*
D19*
X131170000Y-114520000D03*
D18*
X126090000Y-117060000D03*
D19*
X131170000Y-117060000D03*
D18*
X126090000Y-119600000D03*
D19*
X131170000Y-119600000D03*
D18*
X126090000Y-122140000D03*
D19*
X131170000Y-122140000D03*
D18*
X126090000Y-124680000D03*
D19*
X131170000Y-124680000D03*
D18*
X187050000Y-117060000D03*
D19*
X179430000Y-85060000D03*
D18*
X184510000Y-86580000D03*
X123550000Y-86580000D03*
D20*
X179430000Y-124680000D03*
D18*
X184510000Y-124680000D03*
D19*
X179430000Y-122140000D03*
D18*
X184510000Y-122140000D03*
D19*
X179430000Y-119600000D03*
D18*
X184510000Y-119600000D03*
D19*
X179430000Y-117060000D03*
D18*
X184510000Y-117060000D03*
D19*
X179430000Y-114520000D03*
D18*
X184510000Y-114520000D03*
D19*
X179430000Y-111980000D03*
D18*
X184510000Y-111980000D03*
D19*
X179430000Y-109440000D03*
D18*
X184510000Y-109440000D03*
D19*
X179430000Y-106900000D03*
D18*
X184510000Y-106900000D03*
D20*
X179430000Y-102840000D03*
D18*
X184510000Y-104360000D03*
D19*
X179430000Y-100300000D03*
D18*
X184510000Y-101820000D03*
D19*
X179430000Y-97760000D03*
D18*
X184510000Y-99280000D03*
D19*
X179430000Y-95220000D03*
D18*
X184510000Y-96740000D03*
D19*
X179430000Y-92680000D03*
D18*
X184510000Y-94200000D03*
D19*
X179430000Y-90140000D03*
D18*
X184510000Y-91660000D03*
D19*
X179430000Y-82520000D03*
D18*
X184510000Y-84040000D03*
D19*
X179430000Y-79980000D03*
D18*
X184510000Y-81500000D03*
X126090000Y-84040000D03*
X123550000Y-101820000D03*
X126090000Y-86580000D03*
X126090000Y-101820000D03*
X126090000Y-104360000D03*
D19*
X131170000Y-101820000D03*
X131170000Y-104360000D03*
X179430000Y-87600000D03*
D18*
X184510000Y-89120000D03*
X187050000Y-101820000D03*
X126090000Y-91660000D03*
D19*
X131170000Y-91660000D03*
D18*
X123550000Y-89120000D03*
X123550000Y-91660000D03*
X126090000Y-89120000D03*
X126090000Y-109440000D03*
D20*
X131170000Y-89120000D03*
D18*
X187050000Y-89120000D03*
X187050000Y-122140000D03*
X187050000Y-124680000D03*
X187050000Y-94200000D03*
X187050000Y-91660000D03*
X123550000Y-94200000D03*
X123550000Y-96740000D03*
X123550000Y-99280000D03*
X187050000Y-106900000D03*
X187050000Y-104360000D03*
X123550000Y-104360000D03*
X187050000Y-99280000D03*
X187050000Y-96740000D03*
X187050000Y-114520000D03*
X187050000Y-111980000D03*
X187050000Y-109440000D03*
X123550000Y-122140000D03*
X123550000Y-124680000D03*
X187050000Y-119600000D03*
X187050000Y-84040000D03*
X187050000Y-81500000D03*
X187050000Y-78960000D03*
D21*
X184510000Y-78960000D03*
X123550000Y-78960000D03*
D18*
X126090000Y-78960000D03*
X123550000Y-81500000D03*
X123550000Y-106900000D03*
X123550000Y-109440000D03*
X123550000Y-111980000D03*
X123550000Y-114520000D03*
X123550000Y-117060000D03*
X126090000Y-81500000D03*
X126090000Y-94200000D03*
D19*
X131170000Y-94200000D03*
D18*
X187050000Y-86580000D03*
X123550000Y-119600000D03*
X123550000Y-84040000D03*
X126090000Y-106900000D03*
D19*
X131170000Y-106900000D03*
%TD*%
D22*
%TO.C,J6*%
X128230000Y-132630000D03*
D23*
X123150000Y-132630000D03*
%TD*%
D13*
%TO.C,J8*%
X136170000Y-119640000D03*
D14*
X138710000Y-119640000D03*
X141250000Y-119640000D03*
%TD*%
D24*
%TO.C,R1*%
X165360000Y-98560000D03*
D25*
X165360000Y-111260000D03*
%TD*%
D13*
%TO.C,J9*%
X169270000Y-132950000D03*
D14*
X171810000Y-132950000D03*
X174350000Y-132950000D03*
X176890000Y-132950000D03*
%TD*%
D11*
%TO.C,J13*%
X197782500Y-120522500D03*
D12*
X197782500Y-115442500D03*
%TD*%
D26*
%TO.C,D1*%
X168170000Y-118470000D03*
D27*
X169440000Y-118470000D03*
X170710000Y-118470000D03*
X171980000Y-118470000D03*
%TD*%
D22*
%TO.C,J5*%
X186820000Y-132720000D03*
D23*
X181740000Y-132720000D03*
%TD*%
D24*
%TO.C,R3*%
X173320000Y-98560000D03*
D25*
X173320000Y-111260000D03*
%TD*%
D28*
%TO.C,J11*%
X197790000Y-128470000D03*
D29*
X197790000Y-125930000D03*
%TD*%
D24*
%TO.C,R2*%
X169380000Y-98560000D03*
D25*
X169380000Y-111260000D03*
%TD*%
D13*
%TO.C,J14*%
X151900000Y-133580000D03*
D14*
X154440000Y-133580000D03*
X156980000Y-133580000D03*
X159520000Y-133580000D03*
%TD*%
D30*
%TO.C,SW1*%
X200810000Y-94660000D03*
X196110000Y-94660000D03*
X191410000Y-94660000D03*
%TD*%
D13*
%TO.C,J1*%
X145970000Y-119690000D03*
D14*
X148510000Y-119690000D03*
X151050000Y-119690000D03*
X153590000Y-119690000D03*
X156130000Y-119690000D03*
X158670000Y-119690000D03*
X161210000Y-119690000D03*
%TD*%
D15*
%TO.C,J3*%
X104690000Y-134480000D03*
D16*
X106190000Y-134480000D03*
X107690000Y-134480000D03*
X109190000Y-134480000D03*
X110690000Y-134480000D03*
X112190000Y-134480000D03*
%TD*%
M02*
